<svg aria-hidden="true" style="position: absolute; width: 0; height: 0; overflow: hidden;" version="1.1" xmlns="http://www.w3.org/2000/svg" xmlns:xlink="http://www.w3.org/1999/xlink">
<defs>
<symbol id="logo" viewBox="0 0 29 32">
<path fill="#ffe901" style="fill: var(--color1, #ffe901)" d="M20.233 15.195l-14.245 5.067-3.188 10.539h26l-8.567-15.605z"></path>
<path fill="#003986" style="fill: var(--color2, #003986)" d="M18.539 14.384l-6.774-13.984-8.567 19.659 15.341-5.675z"></path>
</symbol>
<symbol id="close" viewBox="0 0 32 32">
<path  d="M26.667 7.303l-1.97-1.97-7.808 7.808-7.808-7.808-1.97 1.97 7.808 7.808-7.808 7.808 1.97 1.97 7.808-7.808 7.808 7.808 1.97-1.97-7.808-7.808 7.808-7.808z"></path>
</symbol>
<symbol id="mail" viewBox="0 0 40 32">
<path d="M35.692 0h-32c-2.031 0-3.692 1.662-3.692 3.692v24.615c0 2.031 1.662 3.692 3.692 3.692h32c2.031 0 3.692-1.662 3.692-3.692v-24.615c0-2.031-1.661-3.692-3.692-3.692zM16.696 15.304l-13.913 9.739v-20.87l13.913 11.13zM2.783 2.783h33.391l-16.482 11.833-16.91-11.833zM16.696 15.304l2.997 2.783 3.264-2.783 13.217 13.217h-33.391l13.913-13.217zM22.957 15.304l13.217-11.13v20.87l-13.217-9.739z"></path>
</symbol>
<symbol id="tel" viewBox="0 0 19 32">
<path d="M16.557 0h-13.635c-1.607 0-2.922 1.35-2.922 3v26c0 1.65 1.315 3 2.922 3h13.635c1.607 0 2.922-1.35 2.922-3v-26c0-1.65-1.315-3-2.922-3zM5.843 1.5h7.791v1h-7.791v-1zM9.739 30c-1.076 0-1.948-0.895-1.948-2s0.872-2 1.948-2c1.076 0 1.948 0.895 1.948 2s-0.872 2-1.948 2zM17.53 24h-15.583v-20h15.583v20z"></path>
</symbol>
<symbol id="arrow" viewBox="0 0 32 32">
<path d="M16 1l-15 15h9v16h12v-16h9z"></path>
</symbol>
<symbol id="arrow2" viewBox="0 0 32 32">
<path d="M27.414 12.586l-10-10c-0.781-0.781-2.047-0.781-2.828 0l-10 10c-0.781 0.781-0.781 2.047 0 2.828s2.047 0.781 2.828 0l6.586-6.586v19.172c0 1.105 0.895 2 2 2s2-0.895 2-2v-19.172l6.586 6.586c0.39 0.39 0.902 0.586 1.414 0.586s1.024-0.195 1.414-0.586c0.781-0.781 0.781-2.047 0-2.828z"></path>
</symbol>
</defs>
</svg>
